:SAMPLES-PER-SECOND 30
:FRAME-RANGE 1-744
:FULLY-SPECIFIED
:DEGREES
559
root  -106.64 38.6618 49.582 166.554 -13.4727 -179.919
RightUpLeg  23.0406 -1.66962 2.24054
RightLeg  0.628466 18.4131 -5.41785
RightFoot  -11.4414 -0.0771022 0.439334
RightToes  5.82063e-011 0 -3.6325e-017
Spine  9.52208 2.4905 7.51758
Spine1  1.21809 4.98535 -9.32336
HEad  15.5901 -59.2431 -21.2149
LeftShoulder1  3.10464 -3.54479 -37.922
LeftArm  10.9974 29.3679 -26.7708
LeftForeArm  6.29157 -2.2497 -17.9039
LeftHand  -0.759248 -2.6198 11.213
RightShoulder  14.6255 15.5157 65.8052
RightArm  23.337 14.9687 1.48531
RightForeArm  2.87254 15.8474 9.38505
RightHand  0.904076 21.5341 3.3557
LeftUpLeg  3.09906 3.49608 4.26831
LeftLeg  -7.75824 -10.6607 3.98914
LeftFoot  -1.54035 0.59867 -6.87052
LeftToes  1.25507e-010 -3.78807e-010 5.71421e-011
560
root  -107.161 38.5663 48.8388 166.46 -12.6612 -179.951
RightUpLeg  24.1248 -1.36517 1.9898
RightLeg  1.37312 18.9109 -5.92144
RightFoot  -12.6661 -0.0751694 0.917073
RightToes  5.82063e-011 0 -3.6325e-017
Spine  9.15883 2.42269 6.93029
Spine1  1.54573 4.81088 -9.34019
HEad  15.9516 -59.4324 -21.32
LeftShoulder1  3.11635 -3.60325 -37.7327
LeftArm  11.6355 27.1052 -27.1916
LeftForeArm  6.28248 -1.46281 -18.1856
LeftHand  -0.773732 -2.60268 11.445
RightShoulder  13.8942 14.3036 66.6186
RightArm  27.6364 12.9767 0.977061
RightForeArm  0.246286 17.2417 8.57084
RightHand  0.907555 21.3463 3.39912
LeftUpLeg  2.92167 3.05657 3.41653
LeftLeg  -5.6142 -12.4591 4.13204
LeftFoot  2.97368 0.721989 -5.89085
LeftToes  1.25507e-010 -3.78807e-010 5.71421e-011
561
root  -107.709 38.532 48.0951 166.312 -11.5722 179.927
RightUpLeg  24.9908 -0.747677 1.72246
RightLeg  2.60163 19.5412 -6.33665
RightFoot  -13.3017 -0.061472 1.67294
RightToes  5.82063e-011 0 -3.6325e-017
Spine  8.86492 2.5038 6.29875
Spine1  1.84098 4.7501 -9.1628
HEad  16.172 -59.3713 -21.293
LeftShoulder1  3.11914 -3.59694 -37.8079
LeftArm  14.0722 24.1554 -27.4993
LeftForeArm  6.94148 -1.26209 -18.4255
LeftHand  -0.895351 -4.96656 10.3176
RightShoulder  13.1932 13.1235 67.5584
RightArm  29.0782 11.1962 0.225507
RightForeArm  0.826239 16.3382 9.35466
RightHand  0.859773 21.331 3.19612
LeftUpLeg  3.51854 2.18971 2.43934
LeftLeg  -4.02698 -11.5932 4.67529
LeftFoot  5.46168 0.731063 -5.1734
LeftToes  1.25507e-010 -3.78807e-010 5.71421e-011
562
root  -108.244 38.5821 47.3573 166.386 -10.3959 179.555
RightUpLeg  25.2193 1.92523 2.04647
RightLeg  4.80743 18.4804 -6.12754
RightFoot  -13.2637 -0.0367485 3.16782
RightToes  5.82063e-011 0 -3.6325e-017
Spine  8.47792 2.65139 5.39117
Spine1  1.98568 4.74219 -9.15523
HEad  16.4389 -58.9226 -20.8867
LeftShoulder1  3.11239 -3.58485 -37.7883
LeftArm  17.5996 20.8628 -27.598
LeftForeArm  4.43534 -1.70772 -18.7147
LeftHand  -0.925456 -4.74091 10.8769
RightShoulder  12.4608 11.8115 68.9674
RightArm  27.4165 9.6741 -0.742229
RightForeArm  4.01051 13.1179 11.6663
RightHand  0.738973 21.1273 2.7027
LeftUpLeg  4.06976 2.74189 2.10899
LeftLeg  -2.23803 -11.3782 3.64218
LeftFoot  5.44552 0.44539 -3.24308
LeftToes  1.25507e-010 -3.78807e-010 5.71421e-011
563
root  -108.789 38.6772 46.6571 166.594 -9.44214 179.268
RightUpLeg  24.7485 8.78839 4.09107
RightLeg  8.76588 13.2094 -4.41288
RightFoot  -12.7769 -0.0268207 4.77694
RightToes  5.82063e-011 0 -3.6325e-017
Spine  8.14663 2.69931 4.76456
Spine1  1.90144 4.69257 -9.37266
HEad  16.759 -58.5801 -20.6543
LeftShoulder1  3.12639 -3.65957 -37.5364
LeftArm  20.339 17.3314 -27.8122
LeftForeArm  2.44552 -2.16752 -18.888
LeftHand  -0.933476 -4.88863 10.8189
RightShoulder  11.6861 10.5477 70.2019
RightArm  22.2852 8.38143 -1.74736
RightForeArm  9.67154 7.13041 14.6746
RightHand  0.730204 20.7638 2.71126
LeftUpLeg  4.66737 3.26089 1.74173
LeftLeg  -0.813928 -10.9135 2.68513
LeftFoot  4.13289 0.20163 -1.66896
LeftToes  1.25507e-010 -3.78807e-010 5.71421e-011
564
root  -109.332 38.7655 45.9989 166.761 -8.46262 179.24
RightUpLeg  23.9336 19.6742 7.46384
RightLeg  14.248 4.2254 -0.872158
RightFoot  -11.7874 -0.0557199 6.25167
RightToes  5.82063e-011 0 -3.6325e-017
Spine  7.89291 2.74531 4.51432
Spine1  1.89181 4.67111 -9.61606
HEad  16.8252 -58.5227 -20.5426
LeftShoulder1  3.15978 -3.81129 -37.1046
LeftArm  21.5915 13.8345 -28.1687
LeftForeArm  1.60956 -2.74063 -18.8435
LeftHand  -0.960094 -5.02697 10.9774
RightShoulder  10.8505 9.40033 70.8175
RightArm  17.0196 6.99086 -2.42998
RightForeArm  14.3864 0.151679 16.4262
RightHand  0.861387 20.3608 3.34984
LeftUpLeg  5.56454 3.82542 1.53745
LeftLeg  -0.230364 -10.567 2.11113
LeftFoot  3.19304 0.0214672 -0.320184
LeftToes  1.25507e-010 -3.78807e-010 5.71421e-011
565
root  -109.865 38.8124 45.4117 167.024 -7.36647 179.172
RightUpLeg  20.8524 21.0737 5.7861
RightLeg  20.2982 5.96973 2.23325
RightFoot  -10.186 -0.152659 8.2521
RightToes  5.82063e-011 0 -3.6325e-017
Spine  7.98 2.7863 4.11509
Spine1  1.5658 4.57847 -9.74103
HEad  15.7169 -58.3789 -19.3823
LeftShoulder1  3.19359 -3.96141 -36.7036
LeftArm  23.1579 10.5819 -28.3895
LeftForeArm  1.02902 -4.15466 -18.4976
LeftHand  -1.14983 -5.09542 12.9901
RightShoulder  9.81581 8.12908 71.0067
RightArm  16.4738 5.33629 -3.02308
RightForeArm  13.9501 -4.58175 17.2001
RightHand  1.11483 19.6839 4.62033
LeftUpLeg  6.36483 4.21631 1.19179
LeftLeg  0.070908 -10.0532 1.70025
LeftFoot  2.61 -0.16643 1.23115
LeftToes  1.25507e-010 -3.78807e-010 5.71421e-011
566
root  -110.329 38.7948 44.8706 167.281 -6.17653 179.088
RightUpLeg  16.5402 19.0522 2.6906
RightLeg  27.455 10.4863 5.65128
RightFoot  -7.96284 -0.397302 11.592
RightToes  5.82063e-011 0 -3.6325e-017
Spine  8.13882 2.88217 3.20246
Spine1  1.42482 4.40153 -9.50139
HEad  13.2685 -58.2729 -17.1914
LeftShoulder1  3.21315 -4.07149 -36.3516
LeftArm  25.7852 7.34168 -28.3745
LeftForeArm  -1.58345 -6.3598 -17.8902
LeftHand  -1.18886 -5.14837 13.3528
RightShoulder  8.49825 6.53912 71.1597
RightArm  20.9247 4.05416 -3.84915
RightForeArm  9.8294 -4.5078 18.1981
RightHand  1.4532 19.3582 6.26002
LeftUpLeg  6.68472 5.016 1.12026
LeftLeg  1.20828 -9.52439 0.848178
LeftFoot  1.39528 -0.317877 2.77222
LeftToes  1.25507e-010 -3.78807e-010 5.71421e-011
567
root  -110.744 38.7476 44.3789 167.454 -5.08342 178.688
RightUpLeg  12.0799 17.3407 -0.337578
RightLeg  34.96 12.8775 9.28769
RightFoot  -5.38046 -0.848546 15.5019
RightToes  5.82063e-011 0 -3.6325e-017
Spine  8.54299 2.84958 2.0747
Spine1  1.27615 4.16706 -9.59652
HEad  9.97523 -58.0656 -14.1986
LeftShoulder1  3.19922 -4.15136 -35.7437
LeftArm  27.8521 3.88321 -28.1709
LeftForeArm  -3.98402 -8.26689 -17.1961
LeftHand  -1.26213 -5.28086 13.9816
RightShoulder  7.14026 4.91483 71.2904
RightArm  23.277 2.4605 -4.67522
RightForeArm  7.99439 -3.65934 18.5779
RightHand  1.64231 18.7555 7.3323
LeftUpLeg  7.19172 5.62136 0.722921
LeftLeg  2.01458 -8.98001 0.0834478
LeftFoot  0.216142 -0.413335 4.06987
LeftToes  1.25507e-010 -3.78807e-010 5.71421e-011
